<svg width="53" height="53" viewBox="0 0 53 53" fill="none" xmlns="http://www.w3.org/2000/svg">
<path d="M26.3364 52.3325C40.7306 52.3325 52.3994 40.6637 52.3994 26.2695C52.3994 11.8752 40.7306 0.206421 26.3364 0.206421C11.9422 0.206421 0.273346 11.8752 0.273346 26.2695C0.273346 40.6637 11.9422 52.3325 26.3364 52.3325Z" fill="#FF8E00"/>
<path d="M20.0572 17.5818C21.5195 16.3776 23.0677 15.0873 24.53 13.8831C24.7881 13.711 24.9601 13.539 25.2182 13.367C26.1644 12.9369 27.1105 13.0229 27.9707 13.711C29.1749 14.6572 30.3792 15.6894 31.5834 16.7216C35.2821 19.7322 38.8948 22.8288 42.5935 25.8394C43.1096 26.2695 43.1096 26.6135 42.6796 27.0436C42.3355 27.4737 41.9914 27.8178 41.6474 28.2478C41.2173 28.6779 40.8732 28.7639 40.4431 28.3339C36.2283 24.8072 32.0995 21.3665 27.8847 17.8398C27.3686 17.4098 26.8525 16.9797 26.3364 16.5496C26.2504 16.6356 26.0783 16.7216 25.9923 16.8076C21.4334 20.5924 16.8746 24.4631 12.2296 28.2478C11.7135 28.6779 11.3695 28.6779 10.9394 28.1618C10.5093 27.6457 10.0792 27.1296 9.64915 26.6135C9.64915 26.4415 9.64915 26.3555 9.64915 26.1834C9.82118 26.0114 9.9072 25.8394 10.0792 25.6673C11.4555 24.5491 12.7458 23.4309 14.122 22.3127L20.0572 17.5818Z" fill="white"/>
<path d="M18.1648 18.0979L14.5521 21.1085L14.4661 14.0551H18.1648V18.0979Z" fill="white"/>
<path d="M14.7241 28.0758C18.2508 25.1512 21.8635 22.1407 25.4762 19.2161C25.8202 18.958 26.0783 18.7 26.4224 18.442C26.5084 18.528 26.6804 18.614 26.7664 18.7C30.5512 21.7966 34.2499 24.8932 38.0346 27.9898C38.2066 28.1618 38.2926 28.3339 38.2926 28.5919C38.2926 31.6885 38.2926 34.8711 38.2926 37.9677C38.2926 38.9999 37.7765 39.516 36.7444 39.516C34.3359 39.516 31.9274 39.516 29.519 39.516C29.433 39.516 29.2609 39.516 29.1749 39.516C29.1749 36.8495 29.1749 34.269 29.1749 31.6025C27.3686 31.6025 25.6482 31.6025 23.9279 31.6025C23.9279 34.269 23.9279 36.8495 23.9279 39.43C23.8419 39.43 23.8419 39.43 23.7558 39.43C21.1754 39.43 18.5949 39.43 16.0144 39.43C15.2402 39.43 14.6381 38.8279 14.6381 38.0537C14.6381 34.8711 14.6381 31.6025 14.6381 28.4199C14.4661 28.3339 14.6381 28.1618 14.7241 28.0758Z" fill="white"/>
</svg>
